<svg width="40" height="40" viewBox="0 0 40 40" fill="none" xmlns="http://www.w3.org/2000/svg">
<g clip-path="url(#clip0_21_3156)">
<path d="M9.00919 24.033L7.66657 29.0451L2.75933 29.1489C1.29279 26.4288 0.460938 23.3167 0.460938 20.0095C0.460938 16.8114 1.2387 13.7956 2.61732 11.1401H2.61838L6.9872 11.9411L8.90101 16.2837C8.50045 17.4515 8.28213 18.705 8.28213 20.0095C8.28228 21.4252 8.53872 22.7816 9.00919 24.033Z" fill="#FBBB00"/>
<path d="M38.6957 16.4066C38.9172 17.5733 39.0326 18.7781 39.0326 20.0094C39.0326 21.3902 38.8875 22.737 38.6109 24.0362C37.6721 28.457 35.219 32.3174 31.8207 35.0491L31.8196 35.0481L26.3169 34.7673L25.5381 29.9056C27.793 28.5832 29.5552 26.5136 30.4835 24.0362H20.1709V16.4066H30.6339H38.6957Z" fill="#518EF8"/>
<path d="M31.8188 35.0481L31.8198 35.0491C28.5148 37.7057 24.3164 39.2952 19.7461 39.2952C12.4017 39.2952 6.0162 35.1901 2.75879 29.149L9.00865 24.033C10.6373 28.3796 14.8304 31.4739 19.7461 31.4739C21.8591 31.4739 23.8386 30.9027 25.5371 29.9056L31.8188 35.0481Z" fill="#28B446"/>
<path d="M32.0566 5.16365L25.8088 10.2786C24.0509 9.17975 21.9728 8.54498 19.7465 8.54498C14.7195 8.54498 10.448 11.7811 8.90095 16.2837L2.61824 11.1401H2.61719C5.82691 4.95173 12.2929 0.723709 19.7465 0.723709C24.426 0.723709 28.7165 2.39057 32.0566 5.16365Z" fill="#F14336"/>
</g>
<defs>
<clipPath id="clip0_21_3156">
<rect width="38.5715" height="38.5715" fill="white" transform="translate(0.460938 0.723709)"/>
</clipPath>
</defs>
</svg>
