<svg width="37" height="37" viewBox="0 0 37 37" fill="none" xmlns="http://www.w3.org/2000/svg">
<g clip-path="url(#clip0_13_719)">
<path d="M8.13186 22.4126L6.85464 27.1806L2.18644 27.2794C0.791328 24.6918 0 21.7312 0 18.5851C0 15.5428 0.739872 12.6739 2.05135 10.1478H2.05235L6.20836 10.9097L8.02895 15.0408C7.6479 16.1517 7.44022 17.3442 7.44022 18.5851C7.44036 19.9318 7.68431 21.2222 8.13186 22.4126Z" fill="#FBBB00"/>
<path d="M36.3721 15.1577C36.5827 16.2676 36.6926 17.4137 36.6926 18.5851C36.6926 19.8985 36.5545 21.1798 36.2914 22.4156C35.3983 26.6212 33.0647 30.2935 29.832 32.8922L29.8309 32.8912L24.5962 32.6241L23.8554 27.9992C26.0004 26.7411 27.6768 24.7724 28.5599 22.4156H18.7496V15.1577H28.703H36.3721Z" fill="#518EF8"/>
<path d="M29.831 32.8912L29.832 32.8922C26.688 35.4193 22.694 36.9314 18.3464 36.9314C11.3597 36.9314 5.28526 33.0263 2.18652 27.2794L8.13195 22.4127C9.68128 26.5476 13.6701 29.4911 18.3464 29.4911C20.3564 29.4911 22.2395 28.9477 23.8553 27.9992L29.831 32.8912Z" fill="#28B446"/>
<path d="M30.0567 4.46243L24.1133 9.32822C22.441 8.28291 20.4642 7.67906 18.3464 7.67906C13.5642 7.67906 9.50078 10.7576 8.02906 15.0408L2.05239 10.1478H2.05139C5.10476 4.26084 11.2558 0.23877 18.3464 0.23877C22.7978 0.23877 26.8794 1.82444 30.0567 4.46243Z" fill="#F14336"/>
</g>
<defs>
<clipPath id="clip0_13_719">
<rect width="36.6926" height="36.6926" fill="white" transform="translate(0 0.23877)"/>
</clipPath>
</defs>
</svg>
