<svg width="50" height="35" viewBox="0 0 50 35" fill="none" xmlns="http://www.w3.org/2000/svg">
<path d="M40.2358 8.08917H37.7209V20.2082C37.7209 21.6332 38.3567 22.8633 40.2358 23.0604V8.08917ZM41.0153 25.252C36.7307 28.0132 29.6416 30.2937 23.7371 30.8827C14.1351 31.8399 4.12416 30.3326 2.72498 22.2179C2.04259 18.218 3.73134 13.9733 5.9587 11.3442V9.93431C1.93528 13.7502 -0.245513 18.584 1.00991 24.2926C2.61361 31.6169 11.2051 35.7641 24.3162 34.3846C29.5039 33.841 36.2954 32.0327 41.0153 29.2303V25.252Z" fill="#187DC1"/>
<path d="M10.2517 8.45517H7.73682V11.0388H10.2517V8.45517Z" fill="#187DC1"/>
<path d="M20.5665 23.1817V15.7036C20.5665 14.1877 19.8193 12.5158 17.6324 12.5158L12.4751 12.5115V23.1817H14.9718V14.6923H17.0371C17.7742 14.6923 18.0779 15.0821 18.0779 15.7188V23.1795H20.5665V23.1817ZM49.0382 9.84119C46.7602 -2.18471 25.163 -2.94702 11.246 6.21372V7.22508C25.1467 -0.499825 44.865 -0.456511 46.6631 10.6187C47.2624 14.2851 45.355 18.1032 41.9471 20.3013V23.173C46.0475 21.5466 50.2592 16.2819 49.0382 9.84119ZM7.73486 12.5158V20.4313C7.73486 21.8628 8.37472 23.0929 10.2538 23.2878V12.5158H7.73486Z" fill="#187DC1"/>
<path d="M22.4355 9.60947V20.1194C22.4355 21.6332 23.3042 23.1643 25.3372 23.1643V23.16H26.8093V20.912H25.7968C25.2015 20.912 24.9282 20.5699 24.9282 19.9483V14.6944H26.8093V12.5136H24.9302V9.60947H22.4355Z" fill="#187DC1"/>
<path d="M10.2567 23.2899H10.2534V23.2965L10.2567 23.2899Z" fill="#187DC1"/>
<path d="M36.2675 17.7069C36.2675 14.6598 34.7286 12.3295 32.068 12.3295C29.4417 12.3295 27.4492 14.3154 27.4492 17.8303C27.4492 21.9386 29.7373 23.3462 32.1267 23.3462C33.9511 23.3462 34.9919 22.7074 35.978 21.6549L34.435 20.0588C33.7952 20.7518 33.2464 21.0788 32.1429 21.0788C30.7255 21.0788 29.9277 20.0588 29.9277 18.6814L36.2675 18.6749V17.7069ZM29.9277 16.8428C29.9297 16.4421 30.0107 16.048 30.1666 15.682C30.444 15.0388 31.1041 14.5667 31.9586 14.5667C33.2383 14.5667 33.7243 15.682 33.7729 16.8428H29.9277Z" fill="#187DC1"/>
<path d="M40.2357 17.3214H37.7208V20.2104C37.7208 21.6354 38.3566 22.8655 40.2357 23.0625V17.3214ZM2.9497 17.3214H1.20021C0.853955 18.4973 0.665642 19.7274 0.655518 21.0095V21.2217C0.663617 22.2136 0.779035 23.238 1.00987 24.2926C2.40703 30.6748 9.11544 34.6466 19.497 34.6466C21.0257 34.6466 22.6335 34.56 24.3162 34.3824C29.5039 33.8389 36.2953 32.0305 41.0153 29.2282V25.252C36.7307 28.0132 29.6416 30.2937 23.7371 30.8827C22.105 31.0452 20.4608 31.1383 18.849 31.1383C10.9803 31.1383 3.88519 28.9553 2.72494 22.2179C2.44551 20.585 2.56295 18.911 2.9497 17.3214Z" fill="#156DA8"/>
<path d="M14.9718 17.3214H12.4751V23.1817H14.9718V17.3214ZM20.5665 17.3214H18.0759V23.1817H20.5665V17.3214ZM48.0319 17.3214H45.0391C44.2433 18.4735 43.1965 19.4957 41.9492 20.2992V23.1708C44.2798 22.2483 46.6469 20.1476 48.0319 17.3214ZM10.2538 17.3214H7.73486V20.4334C7.73486 21.8649 8.37472 23.095 10.2538 23.2899V17.3214ZM24.9281 17.3214H22.4354V20.1194C22.4354 21.6332 23.3041 23.1643 25.3371 23.1643V23.16H26.8092V20.912H25.7967C25.2014 20.912 24.9281 20.5699 24.9281 19.9483V17.3214Z" fill="#156DA8"/>
<path d="M10.2568 23.2878H10.2534V23.2929H10.2568V23.2878Z" fill="#156DA8"/>
<path d="M36.2594 17.3214H27.4634C27.4533 17.4881 27.4492 17.6571 27.4492 17.8325C27.4492 21.9407 29.7373 23.3484 32.1267 23.3484C33.9511 23.3484 34.9919 22.7095 35.978 21.657L34.435 20.0609C33.7952 20.7539 33.2464 21.081 32.1429 21.081C30.7255 21.081 29.9277 20.0609 29.9277 18.6836L36.2675 18.6771V17.7069C36.2675 17.5769 36.2635 17.4492 36.2594 17.3214Z" fill="#156DA8"/>
</svg>
