<svg width="16" height="17" viewBox="0 0 16 17" fill="none" xmlns="http://www.w3.org/2000/svg">
<path d="M15 6.97045C15 11.4483 8 15.9261 8 15.9261C8 15.9261 1 11.4483 1 6.97045C1 5.38699 1.7375 3.86838 3.05025 2.74871C4.36301 1.62903 6.14348 1 8 1C9.85652 1 11.637 1.62903 12.9497 2.74871C14.2625 3.86838 15 5.38699 15 6.97045Z" stroke="#808080" stroke-width="1.5" stroke-linecap="round" stroke-linejoin="round"/>
<path d="M8 9.20938C9.44975 9.20938 10.625 8.20698 10.625 6.97045C10.625 5.73393 9.44975 4.73153 8 4.73153C6.55025 4.73153 5.375 5.73393 5.375 6.97045C5.375 8.20698 6.55025 9.20938 8 9.20938Z" stroke="#808080" stroke-width="1.5" stroke-linecap="round" stroke-linejoin="round"/>
</svg>
