<svg width="16" height="14" viewBox="0 0 16 14" fill="none" xmlns="http://www.w3.org/2000/svg">
<path d="M8 7.44957H8.007M10.8 3.57983V2.28991C10.8 1.94781 10.6525 1.61971 10.3899 1.37781C10.1274 1.1359 9.7713 1 9.4 1H6.6C6.2287 1 5.8726 1.1359 5.61005 1.37781C5.3475 1.61971 5.2 1.94781 5.2 2.28991V3.57983M15 8.09452C12.923 9.35798 10.4889 10.0315 8 10.0315C5.51112 10.0315 3.07705 9.35798 1 8.09452M2.4 3.57983H13.6C14.3732 3.57983 15 4.15734 15 4.86974V11.3193C15 12.0317 14.3732 12.6092 13.6 12.6092H2.4C1.6268 12.6092 1 12.0317 1 11.3193V4.86974C1 4.15734 1.6268 3.57983 2.4 3.57983Z" stroke="#808080" stroke-width="1.5" stroke-linecap="round" stroke-linejoin="round"/>
</svg>
