<svg width="20" height="20" viewBox="0 0 20 20" fill="none" xmlns="http://www.w3.org/2000/svg">
<path d="M9.80764 10.3851C11.1042 10.3851 12.1553 9.32725 12.1553 8.02227C12.1553 6.71729 11.1042 5.65939 9.80764 5.65939C8.51105 5.65939 7.45996 6.71729 7.45996 8.02227C7.45996 9.32725 8.51105 10.3851 9.80764 10.3851Z" stroke="#767F8C" stroke-width="2.10241" stroke-linecap="round" stroke-linejoin="round"/>
<path d="M15.6769 8.02227C15.6769 13.3387 9.80767 17.4738 9.80767 17.4738C9.80767 17.4738 3.93848 13.3387 3.93848 8.02227C3.93848 6.45559 4.55684 4.95307 5.65752 3.84526C6.75821 2.73744 8.25107 2.11508 9.80767 2.11508C11.3643 2.11508 12.8571 2.73744 13.9578 3.84526C15.0585 4.95307 15.6769 6.45559 15.6769 8.02227V8.02227Z" stroke="#767F8C" stroke-width="2.10241" stroke-linecap="round" stroke-linejoin="round"/>
</svg>
